<svg width="664" height="644" viewBox="0 0 664 644" fill="none" xmlns="http://www.w3.org/2000/svg">
<path d="M285.502 453.974C349.249 433.154 390.15 417.383 436.704 416.834C436.704 416.834 503.012 425.378 530.45 416.834C610.679 391.806 617.666 300.658 574.351 233.368C529.499 163.681 448.776 183.567 448.776 183.567C352.158 201.314 287.697 181.739 253.985 165.437C226.967 152.411 194.316 157.259 173.5 178.811C168.811 183.461 165.141 189.038 162.726 195.185C133.074 276.399 167.226 355.764 179.408 404.229C183.908 422.195 221.736 474.794 285.502 453.974Z" stroke="#263238" stroke-linecap="round" stroke-linejoin="round" stroke-dasharray="2 2"/>
<path d="M315.025 118.016C312.446 148.423 309.739 179.25 310.415 209.638C312.007 283.259 319.397 356.642 324.08 430.099C326.878 473.88 335.53 520.149 326.714 563.655C318.464 604.436 285.996 638.1 243.467 641.118C196.657 644.448 162.835 600.74 167.939 556.776C171.762 523.845 191.554 493.419 192.725 460.231C194.279 415.554 142.074 421.317 108.142 392.538C68.2109 358.728 28.7916 313.776 17.1945 261.378C13.847 246.321 12.9873 230.276 18.5664 215.804C43.8277 150.453 151.055 134.042 192.725 189.587C235.656 246.851 218.736 330.132 288.995 337.944C359.255 345.757 428.216 315.825 495.878 298.902C563.54 281.979 638.995 323.637 627.288 412.114C615.581 500.591 506.286 498.103 455.544 436.85C404.802 375.596 428.216 250.748 438.624 201.223C444.35 174.073 459.056 149.703 471.952 125.48C482.104 106.38 494.909 86.4376 491.616 63.8793C481.903 -2.62472 370.889 -21.4324 337.14 35.9604C337.103 36.0336 319.964 59.6165 315.025 118.016Z" stroke="#263238" stroke-linecap="round" stroke-linejoin="round" stroke-dasharray="2 2"/>
<path d="M329.604 385.568C312.497 385.568 296.093 378.771 283.996 366.674C271.902 354.575 265.106 338.168 265.106 321.058C265.106 303.95 271.902 287.541 283.996 275.444C296.093 263.345 312.497 256.548 329.604 256.548C346.71 256.548 363.115 263.345 375.211 275.444C387.306 287.541 394.101 303.95 394.101 321.058C394.101 338.168 387.306 354.575 375.211 366.674C363.115 378.771 346.71 385.568 329.604 385.568Z" fill="#263238" stroke="#263238" stroke-miterlimit="10"/>
<path d="M319.379 360.045H335.091V320.728H346.067L347.219 307.556H335.091V300.018C335.091 296.926 335.713 295.7 338.75 295.7H347.237V282.034H336.372C324.683 282.034 319.415 287.175 319.415 297.018V307.519H311.257V320.857H319.415L319.379 360.045Z" fill="#92E3A9"/>
<path d="M354.883 268.184C360.931 271.073 366.437 274.977 371.163 279.728" stroke="white" stroke-width="0.75" stroke-linecap="round" stroke-linejoin="round"/>
<path d="M293.294 275.063C294.629 274.002 296.038 272.996 297.501 272.026C305.303 266.909 314.215 263.731 323.492 262.758C332.77 261.784 342.147 263.043 350.841 266.428" stroke="white" stroke-width="0.75" stroke-linecap="round" stroke-linejoin="round"/>
<path d="M322.47 379.219C314.019 378.183 305.897 375.315 298.668 370.814C291.439 366.315 285.28 360.292 280.618 353.166C274.029 343.122 270.691 331.292 271.053 319.283C271.417 307.276 275.465 295.669 282.648 286.04" stroke="white" stroke-width="0.75" stroke-linecap="round" stroke-linejoin="round"/>
<path d="M344.128 377.847C340.316 378.853 336.412 379.466 332.476 379.676" stroke="white" stroke-width="0.75" stroke-linecap="round" stroke-linejoin="round"/>
<path d="M371.163 279.728C373.942 282.528 376.442 285.592 378.626 288.876C382.85 295.312 385.764 302.519 387.2 310.084C388.636 317.647 388.566 325.421 386.993 332.957C385.422 340.495 382.38 347.647 378.041 354.006C373.702 360.366 368.15 365.807 361.706 370.016C357.475 372.783 352.908 374.996 348.115 376.603" stroke="white" stroke-width="0.75" stroke-linecap="round" stroke-linejoin="round"/>
<path d="M596.85 385.568C579.745 385.568 563.339 378.771 551.243 366.674C539.148 354.575 532.352 338.168 532.352 321.058C532.352 303.95 539.148 287.541 551.243 275.444C563.339 263.345 579.745 256.548 596.85 256.548C613.957 256.548 630.361 263.345 642.458 275.444C654.552 287.541 661.348 303.95 661.348 321.058C661.348 338.168 654.552 354.575 642.458 366.674C630.361 378.771 613.957 385.568 596.85 385.568Z" fill="#263238" stroke="#263238" stroke-miterlimit="10"/>
<path d="M566.174 370.949C560.465 367.44 555.402 362.971 551.211 357.74" stroke="white" stroke-width="0.75" stroke-linecap="round" stroke-linejoin="round"/>
<path d="M628.148 370.638C626.684 371.553 625.184 372.468 623.63 373.218C615.332 377.477 606.137 379.689 596.812 379.673C587.486 379.658 578.298 377.413 570.016 373.127" stroke="white" stroke-width="0.75" stroke-linecap="round" stroke-linejoin="round"/>
<path d="M610.221 263.994C618.515 265.919 626.287 269.633 632.995 274.875C639.703 280.118 645.185 286.763 649.055 294.346C654.538 305.035 656.601 317.15 654.966 329.049C653.328 340.95 648.073 352.059 639.909 360.869" stroke="white" stroke-width="0.75" stroke-linecap="round" stroke-linejoin="round"/>
<path d="M588.491 263.043C592.39 262.478 596.338 262.313 600.271 262.549" stroke="white" stroke-width="0.75" stroke-linecap="round" stroke-linejoin="round"/>
<path d="M551.211 357.74C548.738 354.646 546.582 351.311 544.773 347.787C541.257 340.941 539.126 333.468 538.502 325.796C537.878 318.123 538.771 310.404 541.132 303.079C543.494 295.753 547.277 288.966 552.265 283.102C557.251 277.24 563.346 272.419 570.199 268.916C574.698 266.612 579.474 264.896 584.411 263.811" stroke="white" stroke-width="0.75" stroke-linecap="round" stroke-linejoin="round"/>
<path d="M596.85 292.059C606.307 292.059 607.423 292.059 611.154 292.261C613.397 292.29 615.62 292.703 617.721 293.487C619.243 294.081 620.626 294.985 621.782 296.141C622.936 297.296 623.84 298.679 624.434 300.201C625.212 302.305 625.62 304.528 625.642 306.769C625.806 310.428 625.843 311.617 625.843 321.058C625.843 330.498 625.843 331.614 625.642 335.347C625.62 337.59 625.212 339.811 624.434 341.915C623.849 343.442 622.947 344.829 621.791 345.985C620.635 347.143 619.249 348.044 617.721 348.629C615.62 349.414 613.397 349.827 611.154 349.855C607.496 350.019 606.307 350.056 596.85 350.056C587.393 350.056 586.296 350.056 582.564 349.855C580.321 349.827 578.099 349.414 575.997 348.629C574.466 348.06 573.081 347.16 571.936 345.994C570.802 344.84 569.939 343.446 569.412 341.915C568.635 339.811 568.227 337.59 568.205 335.347C568.022 331.687 567.985 330.498 567.985 321.058C567.985 311.617 567.985 310.501 568.205 306.769C568.227 304.528 568.635 302.305 569.412 300.201C569.977 298.664 570.885 297.276 572.064 296.139C573.204 294.965 574.59 294.057 576.125 293.487C578.227 292.703 580.449 292.29 582.692 292.261C586.35 292.096 587.539 292.059 596.978 292.059H596.85ZM596.978 285.693C587.375 285.693 586.186 285.693 582.344 285.894C579.412 285.958 576.513 286.514 573.766 287.54C571.411 288.435 569.277 289.827 567.51 291.62C565.708 293.39 564.314 295.532 563.431 297.896C562.395 300.642 561.837 303.544 561.784 306.476C561.601 310.245 561.565 311.453 561.565 321.113C561.565 330.773 561.565 331.925 561.784 335.749C561.837 338.689 562.395 341.598 563.431 344.348C564.341 346.695 565.732 348.825 567.51 350.605C569.289 352.385 571.421 353.774 573.766 354.685C576.513 355.713 579.412 356.269 582.344 356.331C586.131 356.496 587.32 356.533 596.978 356.533C606.636 356.533 607.789 356.533 611.612 356.331C614.544 356.267 617.443 355.711 620.191 354.685C622.536 353.774 624.667 352.385 626.447 350.605C628.225 348.825 629.615 346.695 630.526 344.348C631.561 341.598 632.119 338.689 632.172 335.749C632.355 331.98 632.391 330.773 632.391 321.113C632.391 311.453 632.391 310.3 632.172 306.476C632.119 303.544 631.561 300.642 630.526 297.896C629.642 295.532 628.248 293.39 626.447 291.62C624.68 289.827 622.545 288.435 620.191 287.54C617.443 286.516 614.544 285.96 611.612 285.894C607.825 285.729 606.618 285.693 596.978 285.693Z" fill="#92E3A9"/>
<path d="M596.85 302.89C593.263 302.916 589.764 304.003 586.793 306.015C583.824 308.026 581.516 310.873 580.16 314.195C578.805 317.516 578.463 321.166 579.178 324.68C579.893 328.197 581.635 331.422 584.179 333.949C586.725 336.477 589.961 338.195 593.481 338.885C597.002 339.576 600.647 339.209 603.958 337.831C607.269 336.452 610.099 334.123 612.089 331.139C614.079 328.153 615.142 324.646 615.142 321.058C615.142 316.241 613.229 311.619 609.823 308.213C606.415 304.806 601.796 302.89 596.978 302.89H596.85ZM596.85 332.95C594.516 332.95 592.235 332.258 590.296 330.961C588.355 329.666 586.842 327.822 585.95 325.666C585.057 323.509 584.823 321.136 585.278 318.848C585.734 316.559 586.857 314.457 588.507 312.807C590.157 311.154 592.261 310.031 594.549 309.576C596.837 309.12 599.21 309.354 601.365 310.247C603.521 311.142 605.363 312.653 606.66 314.594C607.957 316.535 608.648 318.817 608.648 321.149C608.65 322.701 608.347 324.236 607.756 325.668C607.163 327.101 606.294 328.403 605.199 329.499C604.103 330.595 602.8 331.464 601.368 332.057C599.936 332.65 598.399 332.954 596.85 332.95Z" fill="#92E3A9"/>
<path d="M620.026 302.177C620.026 303.017 619.777 303.838 619.311 304.535C618.844 305.234 618.182 305.777 617.407 306.099C616.631 306.42 615.777 306.504 614.954 306.341C614.131 306.176 613.375 305.772 612.782 305.179C612.188 304.585 611.784 303.829 611.621 303.006C611.456 302.182 611.54 301.328 611.862 300.554C612.182 299.778 612.728 299.114 613.424 298.648C614.123 298.181 614.943 297.932 615.782 297.932C616.907 297.932 617.987 298.381 618.784 299.176C619.58 299.972 620.026 301.052 620.026 302.177Z" fill="#92E3A9"/>
<path d="M329.604 621.268C312.497 621.268 296.093 614.471 283.996 602.374C271.902 590.275 265.106 573.868 265.106 556.758C265.106 539.648 271.902 523.237 283.996 511.137C296.091 499.036 312.497 492.236 329.604 492.23C346.71 492.236 363.117 499.036 375.211 511.137C387.306 523.237 394.101 539.648 394.101 556.758C394.101 573.868 387.306 590.275 375.211 602.374C363.115 614.471 346.71 621.268 329.604 621.268Z" fill="#263238" stroke="#263238" stroke-miterlimit="10"/>
<path d="M299.221 506.629C304.941 503.138 311.222 500.661 317.787 499.31" stroke="white" stroke-width="0.75" stroke-linecap="round" stroke-linejoin="round"/>
<path d="M271.252 561.936C271.106 560.234 271.033 558.496 271.033 556.758C271.025 547.429 273.248 538.232 277.515 529.935C281.783 521.64 287.969 514.483 295.562 509.062" stroke="white" stroke-width="0.75" stroke-linecap="round" stroke-linejoin="round"/>
<path d="M374.309 594.575C368.82 601.084 361.975 606.313 354.252 609.897C346.529 613.481 338.117 615.333 329.604 615.322C317.601 615.324 305.886 611.641 296.042 604.771C286.199 597.899 278.701 588.171 274.563 576.901" stroke="white" stroke-width="0.75" stroke-linecap="round" stroke-linejoin="round"/>
<path d="M385.065 575.712C383.788 579.437 382.14 583.023 380.145 586.415" stroke="white" stroke-width="0.75" stroke-linecap="round" stroke-linejoin="round"/>
<path d="M317.787 499.438C321.676 498.643 325.634 498.244 329.604 498.249C345.128 498.249 360.016 504.418 370.993 515.398C381.972 526.377 388.138 541.267 388.138 556.795C388.14 561.853 387.489 566.888 386.199 571.779" stroke="white" stroke-width="0.75" stroke-linecap="round" stroke-linejoin="round"/>
<path d="M66.3817 385.568C57.9072 385.575 49.5143 383.912 41.6827 380.674C33.8512 377.435 26.7345 372.684 20.7395 366.694C14.7446 360.702 9.98878 353.589 6.74403 345.758C3.49931 337.928 1.8292 329.534 1.82921 321.058C1.8292 312.582 3.49931 304.189 6.74403 296.359C9.98878 288.529 14.7446 281.415 20.7395 275.423C26.7345 269.434 33.8512 264.682 41.6827 261.444C49.5143 258.206 57.9072 256.541 66.3817 256.548C83.4875 256.548 99.8929 263.345 111.988 275.444C124.084 287.541 130.879 303.95 130.879 321.058C130.879 338.168 124.084 354.575 111.988 366.674C99.8929 378.771 83.4875 385.568 66.3817 385.568Z" fill="#263238" stroke="#263238" stroke-miterlimit="10"/>
<path d="M35.9438 270.947C41.6633 267.452 47.9452 264.977 54.5102 263.628" stroke="white" stroke-width="0.75" stroke-linecap="round" stroke-linejoin="round"/>
<path d="M7.95699 326.254C7.81065 324.534 7.7375 322.814 7.7375 321.058C7.73061 311.729 9.9532 302.532 14.22 294.235C18.4868 285.94 24.6745 278.782 32.2671 273.362" stroke="white" stroke-width="0.75" stroke-linecap="round" stroke-linejoin="round"/>
<path d="M111.033 358.929C105.541 365.421 98.7026 370.637 90.9916 374.217C83.2808 377.797 74.8827 379.654 66.3817 379.658C54.3752 379.675 42.6544 375.995 32.8087 369.124C22.9629 362.25 15.4683 352.515 11.3411 341.238" stroke="white" stroke-width="0.75" stroke-linecap="round" stroke-linejoin="round"/>
<path d="M121.77 340.012C120.505 343.746 118.856 347.339 116.849 350.733" stroke="white" stroke-width="0.75" stroke-linecap="round" stroke-linejoin="round"/>
<path d="M54.5102 263.647C58.3985 262.851 62.3578 262.452 66.3268 262.457C81.8511 262.457 96.7395 268.627 107.717 279.606C118.694 290.585 124.861 305.476 124.861 321.003C124.865 326.062 124.213 331.098 122.922 335.987" stroke="white" stroke-width="0.75" stroke-linecap="round" stroke-linejoin="round"/>
<path d="M31.9561 342.646C38.4026 346.799 45.9097 349.004 53.5773 348.995C79.7532 348.995 94.5331 326.876 93.6551 307.043C96.4086 305.036 98.7866 302.559 100.679 299.725C98.1074 300.856 95.3831 301.602 92.5942 301.939C95.5364 300.183 97.7353 297.411 98.7769 294.145C96.0084 295.781 92.9845 296.937 89.8321 297.566C87.7118 295.303 84.9053 293.803 81.8461 293.296C78.7872 292.789 75.6462 293.304 72.9096 294.762C70.1729 296.22 67.9931 298.54 66.7071 301.363C65.4214 304.184 65.1013 307.351 65.7964 310.373C60.1908 310.093 54.707 308.635 49.7023 306.096C44.6974 303.555 40.2838 299.987 36.7487 295.627C34.946 298.734 34.3926 302.411 35.2011 305.911C36.0097 309.411 38.1195 312.472 41.1022 314.471C38.8583 314.382 36.6689 313.756 34.7182 312.642C34.6742 315.93 35.7797 319.129 37.8438 321.689C39.9079 324.247 42.8007 326.005 46.0227 326.656C43.9458 327.214 41.7696 327.297 39.6571 326.894C40.5572 329.697 42.3109 332.147 44.6726 333.901C47.0341 335.658 49.8854 336.629 52.8273 336.682C49.9125 339.002 46.5684 340.724 42.9866 341.748C39.4048 342.771 35.6563 343.076 31.9561 342.646Z" fill="#92E3A9"/>
<path d="M329.604 134.902C312.497 134.902 296.093 128.106 283.996 116.008C271.902 103.91 265.106 87.5015 265.106 70.3925C265.106 53.2833 271.902 36.875 283.996 24.7772C296.093 12.6792 312.497 5.88264 329.604 5.88264C346.71 5.88264 363.115 12.6792 375.211 24.7772C387.306 36.875 394.101 53.2833 394.101 70.3925C394.101 87.5015 387.306 103.91 375.211 116.008C363.115 128.106 346.71 134.902 329.604 134.902Z" fill="#263238" stroke="#263238" stroke-miterlimit="10"/>
<path fill-rule="evenodd" clip-rule="evenodd" d="M366.773 68.8189C366.855 59.5996 363.274 50.7252 356.813 44.1478C350.354 37.5704 341.547 33.829 332.329 33.7465C323.112 33.6642 314.238 37.2474 307.662 43.708C301.087 50.1687 297.346 58.9776 297.263 68.1969C297.263 68.6908 297.263 69.2031 297.263 69.6971C297.26 75.9805 298.981 82.1442 302.239 87.5169L296.038 106.087L315.281 99.9578C320.553 102.86 326.489 104.343 332.505 104.262C338.523 104.181 344.415 102.538 349.608 99.4956C354.799 96.4527 359.112 92.1138 362.125 86.9032C365.138 81.6925 366.746 75.7891 366.791 69.7703C366.791 69.4958 366.791 69.1116 366.773 68.8189ZM332.018 98.6956C326.308 98.7096 320.721 97.0356 315.958 93.8837L304.727 97.5428L308.385 86.7667C304.794 81.8297 302.872 75.8755 302.897 69.7703C302.897 68.8372 302.897 67.9407 303.044 66.9711C303.913 59.8239 307.383 53.2473 312.793 48.4987C318.204 43.7499 325.175 41.1622 332.373 41.2301C339.571 41.298 346.493 44.0169 351.812 48.8668C357.133 53.7167 360.479 60.3576 361.212 67.5199C361.286 68.2763 361.322 69.0264 361.322 69.7703C361.284 77.4968 358.18 84.8918 352.69 90.3294C347.203 95.7672 339.78 98.8028 332.055 98.7686L332.018 98.6956Z" fill="#92E3A9"/>
<path fill-rule="evenodd" clip-rule="evenodd" d="M347.969 76.6678C347.109 76.247 342.939 74.1979 342.152 73.9235C341.366 73.6491 340.798 73.5027 340.323 74.3443C339.847 75.1859 338.11 77.0886 337.634 77.6375C337.158 78.1863 336.628 78.2778 335.805 77.857C333.295 76.8687 330.977 75.444 328.964 73.6491C327.098 71.9558 325.499 69.9878 324.226 67.8128C323.75 66.9712 324.226 66.5139 324.61 66.0931C324.994 65.6723 325.451 65.1051 325.89 64.6111L326.201 64.2086C326.384 63.8976 326.531 63.6049 326.732 63.2024C326.854 62.9748 326.92 62.7201 326.92 62.4614C326.92 62.2025 326.854 61.9479 326.732 61.7204C326.512 61.2997 324.903 57.1283 324.098 55.4451C323.293 53.7619 322.671 54.0364 322.269 54.0364C321.866 54.0364 321.208 54.0364 320.641 54.0364C320.207 54.045 319.779 54.1436 319.386 54.3263C318.993 54.5089 318.641 54.7716 318.354 55.0975C317.399 56.0015 316.642 57.0946 316.132 58.3072C315.621 59.5201 315.369 60.8256 315.391 62.1412C315.398 63.1208 315.546 64.0943 315.83 65.0319C316.492 67.146 317.52 69.1275 318.866 70.8865C319.287 71.4353 324.756 80.2537 333.5 83.6933C342.244 87.1328 342.152 85.9253 343.725 85.779C344.91 85.5548 346.037 85.0819 347.027 84.3913C348.016 83.7006 348.849 82.808 349.469 81.7723C350.032 80.5101 350.204 79.1081 349.963 77.7473C349.396 77.3082 348.829 77.0886 347.969 76.6678Z" fill="#92E3A9"/>
<path d="M299.221 20.2628C304.941 16.7709 311.222 14.2951 317.787 12.9447" stroke="white" stroke-width="0.75" stroke-linecap="round" stroke-linejoin="round"/>
<path d="M271.252 75.5701C271.106 73.8686 271.033 72.1306 271.033 70.3925C271.025 61.0625 273.248 51.8661 277.515 43.5695C281.783 35.2729 287.969 28.1163 295.562 22.6962" stroke="white" stroke-width="0.75" stroke-linecap="round" stroke-linejoin="round"/>
<path d="M374.309 108.264C368.816 114.768 361.97 119.993 354.249 123.573C346.526 127.154 338.115 129.003 329.604 128.993C317.601 128.995 305.886 125.311 296.042 118.44C286.199 111.569 278.701 101.842 274.563 90.5724" stroke="white" stroke-width="0.75" stroke-linecap="round" stroke-linejoin="round"/>
<path d="M385.065 89.3466C383.785 93.075 382.137 96.6664 380.145 100.068" stroke="white" stroke-width="0.75" stroke-linecap="round" stroke-linejoin="round"/>
<path d="M317.787 12.9812C321.676 12.1852 325.634 11.7867 329.604 11.792C345.128 11.792 360.016 17.9602 370.993 28.9396C381.972 39.919 388.138 54.8103 388.138 70.3374C388.14 75.3948 387.489 80.4312 386.199 85.3214" stroke="white" stroke-width="0.75" stroke-linecap="round" stroke-linejoin="round"/>
<path d="M463.666 510.343C506.025 510.343 540.364 475.998 540.364 433.63C540.364 391.263 506.025 356.917 463.666 356.917C421.307 356.917 386.967 391.263 386.967 433.63C386.967 475.998 421.307 510.343 463.666 510.343Z" fill="#92E3A9" stroke="#263238" stroke-miterlimit="10"/>
<path opacity="0.3" d="M463.666 510.343C506.025 510.343 540.364 475.998 540.364 433.63C540.364 391.263 506.025 356.917 463.666 356.917C421.307 356.917 386.967 391.263 386.967 433.63C386.967 475.998 421.307 510.343 463.666 510.343Z" fill="white" stroke="#263238" stroke-miterlimit="10"/>
<path d="M463.666 356.917C463.666 356.917 424.868 352.709 418.686 371.901C412.503 391.093 438.588 387.69 434.472 396.6C430.356 405.51 413.198 417.109 420.058 430.209C426.917 443.308 439.264 457.652 425.545 452.858C411.826 448.065 408.406 446.674 411.149 461.768C413.893 476.862 428.289 480.978 451.611 478.911C474.934 476.844 472.867 487.839 485.891 489.211C498.915 490.583 511.957 483.027 511.957 463.817C511.957 444.607 496.189 448.742 510.585 439.137C524.981 429.532 522.255 404.833 518.139 397.295C514.024 389.757 505.792 393.178 505.792 383.573C505.792 373.968 486 355.636 463.666 356.917Z" fill="#263238" stroke="#263238" stroke-miterlimit="10"/>
<path d="M442.319 365.882C442.319 365.882 427.96 363.961 428.436 373.053C428.911 382.146 453.825 399.875 477.293 400.369C500.762 400.863 503.14 388.861 499.793 386.464" stroke="white" stroke-width="0.75" stroke-linecap="round" stroke-linejoin="round"/>
<path d="M457.172 373.493C457.172 373.493 445.685 374.92 447.112 382.64C448.538 390.361 455.727 394.13 466.757 398.448" stroke="white" stroke-width="0.75" stroke-linecap="round" stroke-linejoin="round"/>
<path d="M514.627 420.42C514.627 420.42 513.676 432.404 498.841 440.07C484.007 447.736 470.635 459.188 483.44 464.97C496.244 470.751 503.561 477.411 498.768 478.856" stroke="white" stroke-width="0.75" stroke-linecap="round" stroke-linejoin="round"/>
<path d="M441.368 455.859C441.368 455.859 435.624 469.269 427.009 466.836C418.393 464.403 415.503 457.688 421.265 457.688C427.027 457.688 427.484 460.561 427.484 460.561" stroke="white" stroke-width="0.75" stroke-linecap="round" stroke-linejoin="round"/>
<path d="M487.098 400.972C487.098 400.972 498.86 400.789 496.939 412.279C495.018 423.768 484.007 424.738 481.135 433.355" stroke="white" stroke-width="0.75" stroke-linecap="round" stroke-linejoin="round"/>
<path d="M463.666 510.416C480.881 510.438 497.598 504.634 511.097 493.95C505.719 489.98 496.134 482.973 490.555 479.313C482.488 473.935 471.733 457.194 457.373 460.176C445.849 462.591 415.009 475.874 403.266 481.033C410.442 490.199 419.61 497.607 430.074 502.699C440.541 507.79 452.029 510.429 463.666 510.416Z" fill="white" stroke="#263238" stroke-miterlimit="10"/>
<path d="M455.032 457.652C455.032 457.652 433.777 463.817 431.033 481.655C428.289 499.493 448.52 486.632 448.52 486.632C448.52 486.632 459.148 502.238 468.751 497.444C478.354 492.651 479.726 476.167 474.239 465.189C468.751 454.212 455.032 457.652 455.032 457.652Z" fill="white" stroke="#263238" stroke-miterlimit="10"/>
<path d="M454.465 444.552C454.577 450.397 453.781 456.223 452.105 461.823C449.416 470.111 440.655 481.527 448.447 486.65C456.239 491.773 466.227 475.471 468.824 461.786C471.422 448.101 473.306 431.745 473.306 431.745L454.465 444.552Z" fill="white"/>
<g style="mix-blend-mode:multiply" opacity="0.5">
<path d="M452.654 459.993C455.166 460.905 457.774 461.517 460.428 461.823C462.806 462.097 463.757 461.585 464.087 460.981C463.794 464.403 462.678 473.788 458.782 480.704C457.593 482.826 456.623 484.619 455.855 486.193C461.635 482.296 467.032 471.428 468.861 461.841C471.458 448.175 473.269 431.855 473.269 431.855L454.428 444.662C454.52 449.828 453.922 454.984 452.654 459.993Z" fill="#92E3A9"/>
</g>
<path d="M454.465 444.552C454.577 450.397 453.781 456.223 452.105 461.823C449.416 470.111 440.655 481.527 448.447 486.65C456.239 491.773 466.227 475.471 468.824 461.786C471.422 448.101 473.306 431.745 473.306 431.745L454.465 444.552Z" stroke="#263238" stroke-miterlimit="10"/>
<path d="M442.959 391.495C442.959 391.495 436.374 418.938 436.374 429.166C436.374 439.393 445.776 451.907 457.703 452.95C472.922 454.175 478.519 433.721 481.812 422.067C484.665 411.95 486.604 403.204 487.08 401.045C463.94 409.791 442.959 391.495 442.959 391.495Z" fill="white"/>
<g style="mix-blend-mode:multiply" opacity="0.5">
<path d="M487.098 400.972C484.797 401.852 482.413 402.496 479.982 402.893C478.903 409.864 475.592 427.007 468.001 437.545C461.562 446.491 454.666 449.73 450.752 450.901C452.932 451.987 455.295 452.659 457.721 452.877C472.94 454.102 478.537 433.648 481.83 421.994" fill="#92E3A9"/>
</g>
<path d="M442.959 391.495C442.959 391.495 436.374 418.938 436.374 429.166C436.374 439.393 445.776 451.907 457.703 452.95C472.922 454.175 478.519 433.721 481.812 422.067C484.665 411.95 486.604 403.204 487.08 401.045C463.94 409.791 442.959 391.495 442.959 391.495Z" stroke="#263238" stroke-miterlimit="10"/>
<path d="M455.508 410.925C454.67 413.911 453.355 416.741 451.611 419.304C449.234 422.286 444.148 419.597 445.648 421.39C446.477 422.44 447.514 423.307 448.696 423.939C449.876 424.568 451.174 424.947 452.508 425.049" stroke="#263238" stroke-linecap="round" stroke-linejoin="round"/>
<path d="M444.002 430.721C444.002 430.721 448.484 437.307 457.739 434.014" stroke="#263238" stroke-linecap="round" stroke-linejoin="round"/>
<path d="M451.154 408.803C450.88 410.431 449.929 411.639 449.032 411.474C448.136 411.309 447.624 409.882 447.898 408.254C448.173 406.626 449.124 405.436 450.02 405.583C450.916 405.729 451.429 407.175 451.154 408.803Z" fill="#263238"/>
<path d="M466.227 413.102C465.824 414.712 464.8 415.847 463.922 415.627C463.044 415.407 462.642 413.944 463.026 412.334C463.41 410.724 464.434 409.608 465.331 409.809C466.227 410.01 466.611 411.511 466.227 413.102Z" fill="#263238"/>
<path d="M445.026 400.753C445.026 400.753 447.423 395.081 454.593 398.374" stroke="#263238" stroke-linecap="round" stroke-linejoin="round"/>
<path d="M462.934 403.186C462.934 403.186 469.519 401.1 471.312 407.668" stroke="#263238" stroke-linecap="round" stroke-linejoin="round"/>
<path d="M196.676 510.343C239.035 510.343 273.374 475.998 273.374 433.63C273.374 391.263 239.035 356.917 196.676 356.917C154.316 356.917 119.977 391.263 119.977 433.63C119.977 475.998 154.316 510.343 196.676 510.343Z" fill="#92E3A9" stroke="#263238" stroke-miterlimit="10"/>
<path opacity="0.3" d="M196.676 510.343C239.035 510.343 273.374 475.998 273.374 433.63C273.374 391.263 239.035 356.917 196.676 356.917C154.316 356.917 119.977 391.263 119.977 433.63C119.977 475.998 154.316 510.343 196.676 510.343Z" fill="white" stroke="#263238" stroke-miterlimit="10"/>
<path d="M148.696 493.401C163.737 505.52 182.799 511.512 202.066 510.174C221.335 508.839 239.388 500.273 252.613 486.193C243.979 475.069 226.29 456.005 206.608 456.005C184.768 456.005 158.83 482.076 148.696 493.401Z" fill="white" stroke="#263238" stroke-miterlimit="10"/>
<path d="M188.188 450.333C188.188 450.333 175.183 451.815 174.067 461.86C172.951 471.904 180.743 488.626 181.493 490.474C182.243 492.322 198.962 475.618 205.273 475.618C211.584 475.618 227.937 484.528 227.937 484.528C227.937 484.528 222.742 463.707 213.449 455.895C204.157 448.083 190.767 447.351 188.188 450.333Z" fill="white" stroke="#263238" stroke-miterlimit="10"/>
<path opacity="0.5" d="M171.085 413.45C171.085 413.45 165.506 407.87 162.543 412.334C159.58 416.798 162.159 421.994 166.201 425.342C170.244 428.69 176.609 429.001 176.609 426.458C176.609 423.915 171.085 413.45 171.085 413.45Z" fill="#92E3A9" stroke="#263238" stroke-miterlimit="10"/>
<path d="M171.085 413.45C171.085 413.45 165.506 407.87 162.543 412.334C159.58 416.798 162.159 421.994 166.201 425.342C170.244 428.69 176.609 429.001 176.609 426.458C176.609 423.915 171.085 413.45 171.085 413.45Z" stroke="#263238" stroke-miterlimit="10"/>
<path d="M219.047 400.515C219.047 400.515 221.644 393.819 225.358 400.881C229.071 407.943 222.01 414.255 222.01 414.255L219.047 400.515Z" fill="white" stroke="#263238" stroke-miterlimit="10"/>
<path d="M176.664 426.531C176.664 426.531 184.091 453.297 185.957 462.591C187.822 471.886 196.365 485.278 202.675 480.887C208.986 476.496 208.639 468.245 204.907 461.183C202.45 456.301 200.46 451.199 198.962 445.943L176.664 426.531Z" fill="white"/>
<g style="mix-blend-mode:multiply" opacity="0.5">
<path d="M204.907 461.11C202.45 456.228 200.46 451.126 198.962 445.869L176.664 426.531C176.664 426.531 182.755 448.486 185.28 459.463C188.503 461.982 192.17 463.874 196.09 465.043C199.48 465.971 203.094 465.557 206.188 463.89C205.82 462.937 205.392 462.01 204.907 461.11Z" fill="#92E3A9"/>
</g>
<path d="M176.664 426.531C176.664 426.531 184.091 453.297 185.957 462.591C187.822 471.886 196.365 485.278 202.675 480.887C208.986 476.496 208.639 468.245 204.907 461.183C202.45 456.301 200.46 451.199 198.962 445.943L176.664 426.531Z" stroke="#263238" stroke-miterlimit="10"/>
<path d="M163.329 398.649C163.329 398.649 180.798 440.728 188.243 450.333C195.688 459.939 215.681 460.744 224.297 446.674C232.912 432.605 223.181 413.596 221.699 405.034C220.217 396.472 216.212 382.366 218.718 379.768C221.224 377.17 231.723 375.304 227.644 368.608C223.565 361.912 217.602 365.26 216.87 360.43C216.138 355.6 219.833 343.689 206.078 341.841C192.322 339.994 168.158 356.331 158.519 368.974C148.879 381.616 145.806 393.069 163.329 398.649Z" fill="#263238" stroke="#263238" stroke-miterlimit="10"/>
<path d="M168.817 386.007C168.817 386.007 157.366 385.147 163.11 374.133C168.854 363.119 207.175 348.281 207.651 356.423C208.126 364.564 199.511 366.961 199.511 366.961" stroke="white" stroke-width="0.75" stroke-linecap="round" stroke-linejoin="round"/>
<path d="M184.219 375.578C184.219 375.578 175.603 373.657 178.475 367.437C181.347 361.216 202.419 358.289 198.596 362.168C196.33 364.44 193.749 366.376 190.932 367.912" stroke="white" stroke-width="0.75" stroke-linecap="round" stroke-linejoin="round"/>
<path d="M211.968 423.933C211.968 423.933 205.657 433.959 195.615 429.129" stroke="white" stroke-width="0.75" stroke-linecap="round" stroke-linejoin="round"/>
<path d="M221.644 404.961C220.254 396.966 216.577 384.067 218.242 380.317C217.126 377.627 213.285 371.352 201.944 370.767C187.438 370.016 171.835 378.194 168.854 386.007C165.872 393.819 172.951 389.666 175.548 395.301C178.146 400.936 171.451 407.577 172.951 411.657C174.451 415.737 181.493 431.782 181.493 431.782C182.609 427.318 199.346 419.872 199.346 419.872C201.766 420.512 204.274 420.764 206.773 420.622C210.12 420.256 208.255 417.274 208.255 417.274L225.394 418.298C223.931 412.901 222.193 408.199 221.644 404.961Z" fill="white"/>
<g style="mix-blend-mode:multiply" opacity="0.5">
<path d="M182.061 388.989C181.365 381.671 176.573 380.225 173.39 380.097C171.414 381.672 169.846 383.7 168.817 386.007C165.854 393.819 172.915 389.666 175.512 395.301C178.109 400.936 171.415 407.577 172.915 411.657C174.414 415.737 181.457 431.782 181.457 431.782C181.823 430.355 183.762 428.617 186.249 426.934C182.591 421.719 178.128 415.371 175.603 411.693C170.848 404.65 183.14 400.332 182.061 388.989Z" fill="#92E3A9"/>
</g>
<path d="M221.644 404.961C220.254 396.966 216.577 384.067 218.242 380.317C217.126 377.627 213.285 371.352 201.944 370.767C187.438 370.016 171.835 378.194 168.854 386.007C165.872 393.819 172.951 389.666 175.548 395.301C178.146 400.936 171.451 407.577 172.951 411.657C174.451 415.737 181.493 431.782 181.493 431.782C182.609 427.318 199.346 419.872 199.346 419.872C201.766 420.512 204.274 420.764 206.773 420.622C210.12 420.256 208.255 417.274 208.255 417.274L225.394 418.298C223.931 412.901 222.193 408.199 221.644 404.961Z" stroke="#263238" stroke-miterlimit="10"/>
<path d="M190.145 403.168C190.621 405.235 190.145 407.12 189.213 407.339C188.28 407.559 187.036 406.058 186.579 403.973C186.121 401.887 186.579 400.021 187.511 399.801C188.444 399.582 189.688 401.082 190.145 403.168Z" fill="#263238"/>
<path d="M212.279 398.612C212.754 400.698 212.279 402.564 211.346 402.784C210.413 403.003 209.169 401.503 208.694 399.417C208.218 397.332 208.694 395.465 209.645 395.246C210.596 395.026 211.803 396.527 212.279 398.612Z" fill="#263238"/>
<path d="M181.493 393.435C181.493 393.435 182.975 385.257 191.536 388.605" stroke="#263238" stroke-linecap="round" stroke-linejoin="round"/>
<path d="M214.547 384.891C208.218 380.792 205.986 386.72 205.986 386.72C205.986 386.72 201.98 391.111 203.608 399.216" stroke="#263238" stroke-linecap="round" stroke-linejoin="round"/>
<path d="M182.609 415.371L193.383 410.925" stroke="#263238" stroke-width="0.5" stroke-linecap="round" stroke-linejoin="round"/>
<path d="M208.639 407.577L217.547 406.827" stroke="#263238" stroke-width="0.5" stroke-linecap="round" stroke-linejoin="round"/>
<path d="M481.603 269.335C522.786 259.424 548.138 217.996 538.228 176.804C528.319 135.613 486.899 110.256 445.714 120.168C404.531 130.08 379.179 171.507 389.089 212.699C398.998 253.89 440.419 279.247 481.603 269.335Z" fill="#92E3A9" stroke="#263238" stroke-miterlimit="10"/>
<path opacity="0.3" d="M481.603 269.335C522.786 259.424 548.138 217.996 538.228 176.804C528.319 135.613 486.899 110.256 445.714 120.168C404.531 130.08 379.179 171.507 389.089 212.699C398.998 253.89 440.419 279.247 481.603 269.335Z" fill="white" stroke="#263238" stroke-miterlimit="10"/>
<path d="M529.171 179.481C539.503 151.619 524.368 120.31 495.366 109.551C466.362 98.7913 434.475 112.656 424.142 140.518C413.811 168.38 428.946 199.689 457.95 210.447C486.952 221.207 518.838 207.342 529.171 179.481Z" fill="#263238" stroke="#263238" stroke-miterlimit="10"/>
<path d="M528.767 149.337C531.302 158.402 531.138 168.01 528.292 176.982" stroke="white" stroke-width="0.75" stroke-linecap="round" stroke-linejoin="round"/>
<path d="M524.889 184.244C524.889 184.244 521.487 188.617 519.548 191.05" stroke="white" stroke-width="0.75" stroke-linecap="round" stroke-linejoin="round"/>
<path d="M445.356 126.047C445.356 126.047 437.6 135.195 442.447 146.428" stroke="white" stroke-width="0.75" stroke-linecap="round" stroke-linejoin="round"/>
<path d="M463.666 271.477C477.798 271.503 491.662 267.602 503.707 260.207C494.762 251.956 471.477 231.41 460.501 230.514C449.014 229.581 415.485 240.32 404.747 243.888C411.94 252.532 420.947 259.486 431.13 264.254C441.313 269.024 452.422 271.49 463.666 271.477Z" fill="white" stroke="#263238" stroke-miterlimit="10"/>
<path d="M474.989 240.192C475.3 239.277 475.574 238.362 475.867 237.612C469.977 233.697 464.434 230.843 460.501 230.514C455.727 230.464 450.964 231.011 446.325 232.142C444.295 237.631 443.764 243.119 442.118 252.468C439.886 265.11 443.234 268.824 452.526 263.994C461.818 259.164 471.275 251.334 474.989 240.192Z" fill="white" stroke="#263238" stroke-miterlimit="10"/>
<path d="M452.691 216.755C452.691 216.755 454.922 220.854 452.325 230.514C449.727 240.174 443.179 256.127 446.215 259.164C449.252 262.201 467.562 248.37 468.294 237.96C469.025 227.55 469.044 206.729 469.044 206.729L452.691 216.755Z" fill="white"/>
<g style="mix-blend-mode:multiply" opacity="0.5">
<path d="M453.55 223.012L465.294 232.16L464.398 246.797C466.479 244.255 467.826 241.194 468.294 237.942C469.044 227.531 469.044 206.711 469.044 206.711L452.691 216.737C453.486 218.728 453.781 220.883 453.55 223.012Z" fill="#92E3A9"/>
</g>
<path d="M452.691 216.755C452.691 216.755 454.922 220.854 452.325 230.514C449.727 240.174 443.179 256.127 446.215 259.164C449.252 262.201 467.562 248.37 468.294 237.96C469.025 227.55 469.044 206.729 469.044 206.729L452.691 216.755Z" stroke="#263238" stroke-miterlimit="10"/>
<path d="M434.051 171.036C434.051 171.036 431.454 164.34 428.106 169.206C424.759 174.073 428.838 179.982 430.704 179.982C432.569 179.982 434.051 171.036 434.051 171.036Z" fill="white" stroke="#263238" stroke-miterlimit="10"/>
<path d="M442.648 149.465C442.648 149.465 431.874 170.652 429.277 185.159C426.679 199.667 437.453 221.585 448.227 221.585C459.001 221.585 475.665 204.863 475.665 204.863C475.665 204.863 491.269 205.229 493.5 200.033C495.732 194.837 493.134 190.739 489.037 190.739H480.86C480.86 190.739 478.629 191.855 479.745 181.446C480.86 171.036 484.208 166.206 484.208 166.206C484.208 166.206 456.002 168.42 442.648 149.465Z" fill="white"/>
<g style="mix-blend-mode:multiply" opacity="0.5">
<path d="M471.22 198.149C468.96 203.901 465.241 208.965 460.43 212.844C455.619 216.722 449.883 219.28 443.782 220.268H443.673C445.079 221.09 446.673 221.538 448.301 221.567C459.075 221.567 475.739 204.845 475.739 204.845C475.739 204.845 491.342 205.211 493.573 200.015C495.805 194.819 493.208 190.721 489.11 190.721H480.934C480.934 190.721 478.702 191.837 479.818 181.428C480.934 171.017 484.281 166.188 484.281 166.188C484.281 166.188 482.452 166.316 479.434 166.188H479.306" fill="#92E3A9"/>
</g>
<path d="M442.648 149.465C442.648 149.465 431.874 170.652 429.277 185.159C426.679 199.667 437.453 221.585 448.227 221.585C459.001 221.585 475.665 204.863 475.665 204.863C475.665 204.863 491.269 205.229 493.5 200.033C495.732 194.837 493.134 190.739 489.037 190.739H480.86C480.86 190.739 478.629 191.855 479.745 181.446C480.86 171.036 484.208 166.206 484.208 166.206C484.208 166.206 456.002 168.42 442.648 149.465Z" stroke="#263238" stroke-miterlimit="10"/>
<path d="M444.624 173.176C444.185 175.115 443.27 176.561 442.594 176.415C441.917 176.268 441.734 174.585 442.173 172.609C442.612 170.633 443.526 169.224 444.203 169.371C444.88 169.517 445.026 171.219 444.624 173.176Z" fill="#263238"/>
<path d="M462.093 180.97C461.654 182.91 460.739 184.372 460.062 184.208C459.386 184.043 459.203 182.379 459.642 180.421C460.081 178.464 460.995 177.018 461.672 177.183C462.349 177.348 462.532 179.031 462.093 180.97Z" fill="#263238"/>
<path d="M447.477 178.098C447.477 178.098 439.301 184.043 440.417 185.525C443.468 188.15 447.22 189.828 451.209 190.355C454.556 190.355 453.807 186.275 453.807 186.275" stroke="#263238" stroke-linecap="round" stroke-linejoin="round"/>
<path d="M441.533 195.203C445.621 197.432 450.298 198.339 454.922 197.801C456.83 197.615 458.667 196.978 460.282 195.944C461.897 194.911 463.245 193.511 464.215 191.855" stroke="#263238" stroke-linecap="round" stroke-linejoin="round"/>
<path d="M442.283 164.34C442.283 164.34 444.514 159.51 448.977 165.09" stroke="#263238" stroke-linecap="round" stroke-linejoin="round"/>
<path d="M461.233 171.036C461.233 171.036 468.678 168.804 468.678 176.232" stroke="#263238" stroke-linecap="round" stroke-linejoin="round"/>
<path d="M209.127 270.467C250.924 263.592 279.235 224.127 272.361 182.322C265.487 140.516 226.029 112.2 184.232 119.076C142.434 125.952 114.123 165.416 120.997 207.222C127.872 249.027 167.329 277.343 209.127 270.467Z" fill="#92E3A9" stroke="#263238" stroke-miterlimit="10"/>
<path opacity="0.3" d="M209.127 270.467C250.924 263.592 279.235 224.127 272.361 182.322C265.487 140.516 226.029 112.2 184.232 119.076C142.434 125.952 114.123 165.416 120.997 207.222C127.872 249.027 167.329 277.343 209.127 270.467Z" fill="white" stroke="#263238" stroke-miterlimit="10"/>
<path d="M143.903 233.679C142.586 238.929 136.586 238.198 138.416 244.656C150.672 259.007 167.788 268.33 186.489 270.846C205.191 273.362 224.161 268.888 239.772 258.286C245.259 251.791 248.552 244.967 248.698 239.478C249.192 222.72 231.485 210.206 230.534 202.137C229.583 194.069 237.229 175.829 237.229 175.829C237.229 175.829 250.619 173.908 255.411 161.961C260.204 150.014 241.985 123.138 225.705 114.997C209.425 106.855 182.17 114.045 168.78 133.658C155.391 153.271 171.652 170.505 163.037 179.598C154.421 188.69 131.94 189.166 129.544 207.352C127.148 225.537 145.33 227.934 143.903 233.679Z" fill="#263238" stroke="#263238" stroke-miterlimit="10"/>
<path d="M225.76 133.237C225.76 133.237 230.607 145.111 211.73 152.118C192.853 159.125 178.292 155.357 173.427 167.761C168.561 180.165 172.347 188.818 172.896 195.203C173.445 201.588 158.262 200.582 149.116 208.687C139.97 216.792 158.263 226.489 163.146 231.886C168.03 237.283 166.915 245.369 158.281 248.077" stroke="white" stroke-width="0.75" stroke-linecap="round" stroke-linejoin="round"/>
<path d="M168.579 158.064C168.579 158.064 175.585 140.793 186.377 138.086C197.17 135.378 209.041 143.483 217.126 135.927C225.211 128.371 223.602 122.992 217.657 118.674" stroke="white" stroke-width="0.75" stroke-linecap="round" stroke-linejoin="round"/>
<path d="M233.845 140.245C233.845 140.245 252.741 152.667 246.265 162.382C239.79 172.097 237.632 160.223 237.632 160.223" stroke="white" stroke-width="0.75" stroke-linecap="round" stroke-linejoin="round"/>
<path d="M155.08 259.201C169.408 268.464 186.416 272.679 203.409 271.181C220.404 269.682 236.411 262.558 248.899 250.931C243.253 245.743 237.264 240.938 230.973 236.551C219.01 228.41 209.444 225.574 202.749 226.013C202.749 226.013 197.481 228.41 187.438 237.978C180.89 244.217 165.159 253.493 155.08 259.201Z" fill="white" stroke="#263238" stroke-miterlimit="10"/>
<path d="M220.437 239.167C220.443 235.984 219.987 232.817 219.083 229.763C214.018 227.231 208.41 225.976 202.749 226.104C202.749 226.104 198.56 227.934 190.566 235.252C190.398 236.606 190.312 237.969 190.31 239.332C190.31 251.901 197.042 262.073 205.364 262.073C213.687 262.073 220.437 251.736 220.437 239.167Z" fill="white" stroke="#263238" stroke-miterlimit="10"/>
<path d="M198.907 201.607C198.907 201.607 198.907 215.017 197.481 227.458C196.054 239.899 197.956 253.291 207.047 254.243C216.138 255.194 214.693 233.679 213.742 225.062C213.177 219.655 213.177 214.205 213.742 208.797L198.907 201.607Z" fill="white"/>
<g style="mix-blend-mode:multiply" opacity="0.5">
<path d="M197.206 230.349L213.358 214.688C213.358 214.194 213.358 213.718 213.358 213.279L210.065 207.15L198.852 201.662C198.852 201.662 198.852 215.072 197.426 227.513C197.371 228.41 197.279 229.379 197.206 230.349Z" fill="#92E3A9"/>
</g>
<path d="M198.907 201.607C198.907 201.607 198.907 215.017 197.481 227.458C196.054 239.899 197.956 253.291 207.047 254.243C216.138 255.194 214.693 233.679 213.742 225.062C213.177 219.655 213.177 214.205 213.742 208.797L198.907 201.607Z" stroke="#263238" stroke-miterlimit="10"/>
<path d="M231.449 141.8C231.449 141.8 232.4 148.02 216.138 155.686C199.877 163.352 191.737 169.554 190.31 176.726C188.883 183.897 188.389 186.787 188.389 186.787C188.389 186.787 185.042 180.074 178.823 183.421C172.603 186.769 178.347 199.704 184.091 200.18C189.834 200.655 191.261 198.734 191.261 198.734C191.261 198.734 209.919 217.396 220.913 217.396C231.906 217.396 236.223 206.876 238.619 188.123C240.942 170.121 231.449 141.8 231.449 141.8Z" fill="white"/>
<g style="mix-blend-mode:multiply" opacity="0.5">
<path d="M195.542 180.184C196.121 174.157 198.265 168.386 201.761 163.443C194.938 167.907 191.225 172.115 190.31 176.726C188.865 183.915 188.389 186.787 188.389 186.787C188.389 186.787 185.042 180.074 178.823 183.421C172.603 186.769 178.347 199.704 184.091 200.18C189.834 200.655 191.261 198.734 191.261 198.734C191.261 198.734 209.919 217.396 220.913 217.396C217.649 215.775 214.58 213.786 211.767 211.468C205.255 206.711 195.011 192.075 195.542 180.184Z" fill="#92E3A9"/>
</g>
<path d="M231.449 141.8C231.449 141.8 232.4 148.02 216.138 155.686C199.877 163.352 191.737 169.554 190.31 176.726C188.883 183.897 188.389 186.787 188.389 186.787C188.389 186.787 185.042 180.074 178.823 183.421C172.603 186.769 178.347 199.704 184.091 200.18C189.834 200.655 191.261 198.734 191.261 198.734C191.261 198.734 209.919 217.396 220.913 217.396C231.906 217.396 236.223 206.876 238.619 188.123C240.942 170.121 231.449 141.8 231.449 141.8Z" stroke="#263238" stroke-miterlimit="10"/>
<path d="M228.138 170.835C227.595 172.318 227.37 173.898 227.478 175.474C227.584 177.05 228.021 178.586 228.76 179.982C231.266 184.683 232.528 186.239 231.595 187.501C231.328 187.936 230.977 188.313 230.563 188.612C230.15 188.91 229.682 189.124 229.186 189.241C228.69 189.358 228.176 189.376 227.673 189.294C227.17 189.212 226.687 189.032 226.254 188.763" stroke="#263238" stroke-linecap="round" stroke-linejoin="round"/>
<path d="M226.254 200.015C226.254 200.015 217.108 203.473 214.017 196.868" stroke="#263238" stroke-linecap="round" stroke-linejoin="round"/>
<path d="M217.163 177.897C217.163 179.891 216.596 181.556 215.901 181.556C215.205 181.556 214.657 179.946 214.657 177.897C214.657 175.847 215.205 174.237 215.901 174.237C216.596 174.237 217.163 175.902 217.163 177.897Z" fill="#263238"/>
<path d="M232.528 177.421C233.225 177.421 233.79 175.807 233.79 173.817C233.79 171.826 233.225 170.212 232.528 170.212C231.831 170.212 231.266 171.826 231.266 173.817C231.266 175.807 231.831 177.421 232.528 177.421Z" fill="#263238"/>
<path d="M208.072 167.395C208.072 167.395 209.901 162.364 217.474 163.315" stroke="#263238" stroke-linecap="round" stroke-linejoin="round"/>
<path d="M228.449 162.364C228.449 162.364 230.644 157.04 235.345 161.431" stroke="#263238" stroke-linecap="round" stroke-linejoin="round"/>
</svg>
