<svg width="48" height="49" viewBox="0 0 48 49" fill="none" xmlns="http://www.w3.org/2000/svg">
<g clip-path="url(#clip0_2_4307)">
<path d="M23.8341 0.135742C17.3611 0.135742 16.5495 0.163203 14.0073 0.279146C11.4704 0.394877 9.73787 0.797841 8.22179 1.38693C6.65448 1.99603 5.32531 2.81104 4.00033 4.136C2.67529 5.46098 1.86028 6.7903 1.25126 8.3576C0.662031 9.87362 0.259206 11.6062 0.143333 14.143C0.0273894 16.6852 0 17.4969 0 23.9699C0 30.4427 0.0273894 31.2544 0.143333 33.7966C0.259206 36.3335 0.662031 38.0661 1.25126 39.5821C1.86035 41.1492 2.67537 42.4785 4.00033 43.8036C5.32539 45.1286 6.65448 45.9435 8.22179 46.5528C9.73787 47.1417 11.4704 47.5447 14.0073 47.6604C16.5495 47.7765 17.3611 47.804 23.8341 47.804C30.307 47.804 31.1187 47.7765 33.6608 47.6604C36.1977 47.5447 37.9304 47.1417 39.4463 46.5528C41.0135 45.9435 42.3428 45.1286 43.6678 43.8036C44.9928 42.4785 45.8078 41.1492 46.4171 39.5821C47.006 38.0661 47.409 36.3335 47.5247 33.7966C47.6407 31.2544 47.6683 30.4427 47.6683 23.9699C47.6683 17.4969 47.6407 16.6852 47.5247 14.143C47.409 11.6062 47.006 9.87362 46.4171 8.3576C45.8078 6.7903 44.9928 5.46098 43.6678 4.136C42.3428 2.81104 41.0135 1.99603 39.4463 1.38693C37.9304 0.797841 36.1977 0.394877 33.6608 0.279146C31.1187 0.163203 30.307 0.135742 23.8341 0.135742ZM23.8341 4.43013C30.198 4.43013 30.9518 4.45449 33.4651 4.56915C35.7889 4.67507 37.051 5.06337 37.8906 5.38977C39.0032 5.82217 39.7974 6.3386 40.6313 7.17261C41.4652 8.00667 41.9817 8.80067 42.4141 9.91313C42.7404 10.753 43.1287 12.015 43.2347 14.3388C43.3494 16.852 43.3737 17.6059 43.3737 23.9698C43.3737 30.3337 43.3494 31.0876 43.2347 33.6008C43.1287 35.9246 42.7404 37.1867 42.4141 38.0264C41.9817 39.139 41.4652 39.9331 40.6313 40.767C39.7974 41.6009 39.0032 42.1175 37.8906 42.5498C37.051 42.8762 35.7888 43.2645 33.4651 43.3705C30.9523 43.4851 30.1985 43.5095 23.8341 43.5095C17.4696 43.5095 16.716 43.4851 14.2031 43.3705C11.8792 43.2645 10.6172 42.8762 9.77746 42.5498C8.66486 42.1175 7.87093 41.6009 7.03694 40.767C6.20293 39.9331 5.68642 39.139 5.25403 38.0264C4.92763 37.1867 4.5394 35.9246 4.43341 33.6008C4.31875 31.0876 4.29439 30.3337 4.29439 23.9698C4.29439 17.6059 4.31875 16.852 4.43341 14.3388C4.5394 12.015 4.92763 10.753 5.25403 9.9132C5.68642 8.8006 6.20293 8.00667 7.03687 7.17269C7.87093 6.3386 8.66493 5.82217 9.77738 5.38977C10.6172 5.06337 11.8793 4.67507 14.2031 4.56915C16.7163 4.45449 17.4701 4.43013 23.8341 4.43013" fill="#B3EBC3"/>
<path d="M23.8341 31.9145C19.4463 31.9145 15.8894 28.3575 15.8894 23.9698C15.8894 19.582 19.4463 16.0251 23.8341 16.0251C28.2218 16.0251 31.7788 19.582 31.7788 23.9698C31.7788 28.3575 28.2218 31.9145 23.8341 31.9145ZM23.8341 11.7307C17.0745 11.7307 11.595 17.2103 11.595 23.9698C11.595 30.7293 17.0745 36.2088 23.8341 36.2088C30.5936 36.2088 36.0731 30.7293 36.0731 23.9698C36.0731 17.2103 30.5936 11.7307 23.8341 11.7307ZM39.417 11.2471C39.417 12.8267 38.1364 14.1072 36.5567 14.1072C34.9772 14.1072 33.6967 12.8267 33.6967 11.2471C33.6967 9.66752 34.9772 8.38696 36.5567 8.38696C38.1364 8.38696 39.417 9.66752 39.417 11.2471Z" fill="#B3EBC3"/>
</g>
<defs>
<clipPath id="clip0_2_4307">
<rect width="48" height="48" fill="white" transform="translate(0 0.135742)"/>
</clipPath>
</defs>
</svg>
